<svg width="920" height="1019" viewBox="0 0 920 1019" fill="none" xmlns="http://www.w3.org/2000/svg">
<g opacity="0.5">
<path d="M714.509 231.003L597.003 299.867" stroke="#B2B2B2"/>
<path d="M645.644 113.497L528.138 182.361" stroke="#B2B2B2"/>
<path d="M597.003 299.867L528.138 182.361" stroke="#B2B2B2"/>
<path d="M714.509 231.003L645.644 113.497" stroke="#B2B2B2"/>
<path d="M597.003 299.867L440.328 391.686" stroke="#B2B2B2"/>
<path d="M528.138 182.361L371.464 274.18" stroke="#B2B2B2"/>
<path d="M440.328 391.686L371.464 274.181" stroke="#B2B2B2"/>
<path d="M597.003 299.867L528.138 182.361" stroke="#B2B2B2"/>
<path d="M97.2834 434.864L214.789 366" stroke="#B2B2B2"/>
<path d="M166.148 552.37L283.654 483.506" stroke="#B2B2B2"/>
<path d="M214.789 366L283.654 483.506" stroke="#B2B2B2"/>
<path d="M97.2834 434.864L166.148 552.37" stroke="#B2B2B2"/>
<path d="M214.789 366L371.464 274.181" stroke="#B2B2B2"/>
<path d="M283.654 483.506L440.328 391.686" stroke="#B2B2B2"/>
<path d="M214.789 366L283.654 483.506" stroke="#B2B2B2"/>
<path d="M440.328 391.686L557.834 322.822" stroke="#B2B2B2"/>
<path d="M509.193 509.192L626.699 440.328" stroke="#B2B2B2"/>
<path d="M557.834 322.822L626.698 440.328" stroke="#B2B2B2"/>
<path d="M557.834 322.822L714.508 231.003" stroke="#B2B2B2"/>
<path d="M626.698 440.328L783.373 348.509" stroke="#B2B2B2"/>
<path d="M714.508 231.003L783.373 348.509" stroke="#B2B2B2"/>
<path d="M557.834 322.822L626.698 440.328" stroke="#B2B2B2"/>
<path d="M509.193 509.192L391.687 578.057" stroke="#B2B2B2"/>
<path d="M440.328 391.686L322.822 460.551" stroke="#B2B2B2"/>
<path d="M391.687 578.057L322.823 460.551" stroke="#B2B2B2"/>
<path d="M391.687 578.057L235.012 669.876" stroke="#B2B2B2"/>
<path d="M322.823 460.551L166.148 552.37" stroke="#B2B2B2"/>
<path d="M235.012 669.876L166.148 552.37" stroke="#B2B2B2"/>
<path d="M391.687 578.057L322.822 460.551" stroke="#B2B2B2"/>
<path d="M852.181 466L734.675 534.865" stroke="#B2B2B2"/>
<path d="M783.317 348.495L665.811 417.359" stroke="#B2B2B2"/>
<path d="M734.676 534.865L665.811 417.359" stroke="#B2B2B2"/>
<path d="M852.181 466L783.317 348.494" stroke="#B2B2B2"/>
<path d="M734.675 534.865L578.001 626.684" stroke="#B2B2B2"/>
<path d="M665.811 417.359L509.136 509.178" stroke="#B2B2B2"/>
<path d="M578.001 626.684L509.136 509.178" stroke="#B2B2B2"/>
<path d="M734.675 534.865L665.811 417.359" stroke="#B2B2B2"/>
<path d="M234.956 669.862L352.462 600.997" stroke="#B2B2B2"/>
<path d="M303.821 787.367L421.326 718.503" stroke="#B2B2B2"/>
<path d="M352.462 600.997L421.326 718.503" stroke="#B2B2B2"/>
<path d="M234.956 669.862L303.82 787.368" stroke="#B2B2B2"/>
<path d="M352.462 600.997L509.137 509.178" stroke="#B2B2B2"/>
<path d="M421.327 718.503L578.001 626.684" stroke="#B2B2B2"/>
<path d="M352.462 600.997L421.327 718.503" stroke="#B2B2B2"/>
<path d="M578.001 626.684L695.507 557.819" stroke="#B2B2B2"/>
<path d="M646.865 744.19L764.371 675.325" stroke="#B2B2B2"/>
<path d="M695.507 557.819L764.371 675.325" stroke="#B2B2B2"/>
<path d="M695.507 557.819L852.181 466" stroke="#B2B2B2"/>
<path d="M764.371 675.325L921.046 583.506" stroke="#B2B2B2"/>
<path d="M852.181 466L921.045 583.506" stroke="#B2B2B2"/>
<path d="M695.507 557.819L764.371 675.325" stroke="#B2B2B2"/>
<path d="M646.865 744.19L529.359 813.054" stroke="#B2B2B2"/>
<path d="M578.001 626.684L460.495 695.548" stroke="#B2B2B2"/>
<path d="M529.359 813.054L460.495 695.548" stroke="#B2B2B2"/>
<path d="M529.359 813.054L372.685 904.873" stroke="#B2B2B2"/>
<path d="M460.495 695.548L303.82 787.368" stroke="#B2B2B2"/>
<path d="M372.685 904.874L303.82 787.368" stroke="#B2B2B2"/>
<path d="M529.359 813.054L460.495 695.548" stroke="#B2B2B2"/>
</g>
<defs>
<linearGradient id="paint0_linear_15_2063" x1="621.653" y1="107.235" x2="562.83" y2="160.097" gradientUnits="userSpaceOnUse">
<stop stop-color="#13B0F5"/>
<stop offset="1" stop-color="#CA24B4"/>
</linearGradient>
<linearGradient id="paint1_linear_15_2063" x1="527.723" y1="183.954" x2="427.61" y2="316.567" gradientUnits="userSpaceOnUse">
<stop stop-color="#E70FAA"/>
<stop offset="1" stop-color="#13B0F5"/>
</linearGradient>
<linearGradient id="paint2_linear_15_2063" x1="603.264" y1="275.875" x2="550.402" y2="217.053" gradientUnits="userSpaceOnUse">
<stop stop-color="#13B0F5"/>
<stop offset="1" stop-color="#CA24B4"/>
</linearGradient>
<linearGradient id="paint3_linear_15_2063" x1="246.778" y1="374.349" x2="325.208" y2="303.866" gradientUnits="userSpaceOnUse">
<stop stop-color="#00C0FD"/>
<stop offset="0.421875" stop-color="#E70FAA"/>
<stop offset="1" stop-color="#00C0FD"/>
</linearGradient>
<linearGradient id="paint4_linear_15_2063" x1="708.247" y1="254.994" x2="761.109" y2="313.817" gradientUnits="userSpaceOnUse">
<stop stop-color="#13B0F5"/>
<stop offset="0.0001" stop-color="#505685"/>
<stop offset="0.317708" stop-color="#CA24B4"/>
<stop offset="1" stop-color="#13B0F5"/>
</linearGradient>
<linearGradient id="paint5_linear_15_2063" x1="235.012" y1="669.876" x2="134.428" y2="594.956" gradientUnits="userSpaceOnUse">
<stop stop-color="#8E34FF"/>
<stop offset="0.494792" stop-color="#CA24B4"/>
<stop offset="1" stop-color="#8E34FF"/>
</linearGradient>
<linearGradient id="paint6_linear_15_2063" x1="740.937" y1="510.873" x2="688.075" y2="452.051" gradientUnits="userSpaceOnUse">
<stop stop-color="#CA24B4"/>
<stop offset="0.234375" stop-color="#13B0F5"/>
</linearGradient>
<linearGradient id="paint7_linear_15_2063" x1="392.531" y1="577.852" x2="465.905" y2="479.792" gradientUnits="userSpaceOnUse">
<stop stop-color="#13B0F5"/>
<stop offset="0.75" stop-color="#CA24B4"/>
<stop offset="1" stop-color="#13B0F5"/>
</linearGradient>
<linearGradient id="paint8_linear_15_2063" x1="727.496" y1="566.168" x2="805.925" y2="495.685" gradientUnits="userSpaceOnUse">
<stop stop-color="#8643DC"/>
<stop offset="0.0001" stop-color="#8643DC"/>
<stop offset="0.317708" stop-color="#CA24B4"/>
<stop offset="1" stop-color="#8643DC"/>
</linearGradient>
<linearGradient id="paint9_linear_15_2063" x1="796.36" y1="683.674" x2="874.79" y2="613.191" gradientUnits="userSpaceOnUse">
<stop stop-color="#8643DC"/>
<stop offset="0.0001" stop-color="#8643DC"/>
<stop offset="0.317708" stop-color="#CA24B4"/>
<stop offset="1" stop-color="#8643DC"/>
</linearGradient>
<linearGradient id="paint10_linear_15_2063" x1="529.359" y1="813.054" x2="428.775" y2="738.134" gradientUnits="userSpaceOnUse">
<stop stop-color="#13B0F5"/>
<stop offset="0.0582928" stop-color="#CA24B4"/>
<stop offset="1" stop-color="#13B0F5"/>
</linearGradient>
</defs>
</svg>
